<?xml version="1.0" encoding="UTF-8"?>
<!-- Created with Inkscape (http://www.inkscape.org/) -->
<svg width="80" height="15" version="1.0" xmlns="http://www.w3.org/2000/svg" xmlns:cc="http://creativecommons.org/ns#" xmlns:dc="http://purl.org/dc/elements/1.1/" xmlns:rdf="http://www.w3.org/1999/02/22-rdf-syntax-ns#">
 <defs>
  <clipPath id="clipPath3442">
   <rect x="172" y="239.12" width="20.614" height="12.484"/>
  </clipPath>
 </defs>
 <metadata>
  <rdf:RDF>
   <cc:Work rdf:about="">
    <dc:format>image/svg+xml</dc:format>
    <dc:type rdf:resource="http://purl.org/dc/dcmitype/StillImage"/>
   </cc:Work>
  </rdf:RDF>
 </metadata>
 <g id="BY-NC-SA" transform="matrix(.9875 0 0 .93335 -323.9 -331.61)">
  <g transform="translate(158,118)">
   <g>
    <rect x="170.5" y="237.86" width="80" height="15" fill="#fff" stroke="#000" stroke-width="1.0416"/>
    <rect x="172" y="239.36" width="77" height="12"/>
    <path d="m172 239.38v12h20.335c1.3086-1.7503 2.1918-3.7845 2.1918-6 0-2.2007-0.86793-4.2572-2.1605-6h-20.366z" fill="#abb1aa"/>
   </g>
   <g transform="matrix(.96125 0 0 .96125 6.8342 9.507)" clip-path="url(#clipPath3442)">
    <path cx="296.35416" cy="264.3577" rx="22.939548" ry="22.939548" d="m190.06 245.36c0.0025 3.892-3.1509 7.0487-7.0426 7.0512-3.8917 0.00249-7.0489-3.1507-7.0512-7.0426v-0.00854c-0.00226-3.892 3.1509-7.0487 7.0426-7.0509 3.8922-0.00249 7.0489 3.1507 7.0512 7.0427v0.00826z" fill="#fff" type="arc"/>
    <path d="m188.75 239.62c1.5627 1.5627 2.3441 3.4764 2.3441 5.7398 0 2.2639-0.76791 4.1571-2.3037 5.6796-1.6299 1.6036-3.5562 2.4051-5.7789 2.4051-2.1959 0-4.0888-0.795-5.6784-2.385-1.5898-1.5898-2.3845-3.4895-2.3845-5.6997 0-2.2097 0.79476-4.123 2.3845-5.7398 1.5491-1.5632 3.4421-2.3446 5.6784-2.3446 2.2634 0 4.1759 0.78145 5.7385 2.3446zm-10.365 1.0513c-1.3212 1.3344-1.9815 2.8976-1.9815 4.6907 0 1.7926 0.65381 3.3425 1.9612 4.6496 1.3076 1.3076 2.8642 1.9612 4.6704 1.9612 1.8062 0 3.3761-0.66007 4.7106-1.981 1.267-1.2269 1.9007-2.7694 1.9007-4.6298 0-1.8463-0.64403-3.4134-1.9313-4.7008-1.287-1.287-2.847-1.9308-4.68-1.9308-1.833 1e-5 -3.3834 0.64705-4.6501 1.9408zm3.4767 3.902c-0.20188-0.44014-0.50407-0.66034-0.9071-0.66034-0.71249 0-1.0686 0.47976-1.0686 1.4388 0 0.95924 0.35612 1.4385 1.0686 1.4385 0.47049 0 0.80654-0.23347 1.0082-0.70144l0.9876 0.5259c-0.47074 0.83638-1.177 1.2547-2.1187 1.2547-0.72627 0-1.3081-0.22269-1.745-0.66759-0.43763-0.44539-0.65581-1.0593-0.65581-1.842 0-0.76893 0.2252-1.3794 0.67587-1.8315 0.45067-0.45218 1.0119-0.67816 1.6848-0.67816 0.99538 0 1.7081 0.39225 2.139 1.176l-1.0689 0.54724zm4.6464 0c-0.20214-0.44014-0.49831-0.66034-0.88881-0.66034-0.72678 0-1.0904 0.47976-1.0904 1.4388 0 0.95924 0.36365 1.4385 1.0904 1.4385 0.47125 0 0.80127-0.23347 0.98963-0.70144l1.0097 0.5259c-0.46999 0.83638-1.1752 1.2547-2.1152 1.2547-0.72528 0-1.3058-0.22269-1.7425-0.66759-0.43587-0.44539-0.65429-1.0593-0.65429-1.842 0-0.76893 0.22168-1.3794 0.66483-1.8315 0.44289-0.45218 1.0067-0.67816 1.6918-0.67816 0.99362 0 1.7054 0.39225 2.1347 1.176l-1.0899 0.54724z"/>
   </g>
  </g>
 </g>
 <g transform="translate(-26.752 -27.424)" stroke="#f9f9f9">
  <g transform="matrix(.5 0 0 .5 38.25 17.506)" stroke-width=".05">
   <path d="m35 30v10h6l2-2v-2l-1-1 1-1v-2" fill="#fff"/>
   <path d="m43 32-2-2h-6" fill="#fff"/>
   <path d="m37.004 31.835v2h3l1-1-1-1h-3" fill="#1a1a1a"/>
   <path d="m36.995 36.008v2h3l1-1-1-1h-3" fill="#1a1a1a"/>
  </g>
  <g fill="#f9f9f9" stroke-width=".025">
   <path d="m60.76 32.506-0.0096 1 2 2 0.01842 2.0125 0.98158-0.0125v-2l2-2v-1h-0.5l-2 2-1.9823-1.995"/>
   <path d="m66.75 35.506v-1h3v1"/>
   <path d="m83.25 35.513v-1h3v1"/>
   <path d="m71.25 37.506v-5h1l3 3.5v-3.5h1v5h-1l-3-3.5v3.5"/>
   <path d="m77.25 33.506 1-1h2l1 1v0.5h-1l-0.5-0.5h-1l-0.5 0.5v2l0.5 0.5h1l0.5-0.5h1v0.5l-1 1h-2l-1-1"/>
   <path d="m89.25 35.506-1-1v-1l1-1h3v1h-2.5l-0.5 0.5 0.5 0.5h1.5l1 1v1l-1 1h-3v-1h2.5l0.5-0.5-0.5-0.5"/>
  </g>
  <g transform="matrix(.5 0 0 .5 44.75 17.506)" stroke-width=".05">
   <path d="m97 40v-8l2-2h4l2 2v8h-2v-4h-4v4" fill="#f9f9f9"/>
   <path d="m99 34v-1l1-1h2l1 1v1" fill="#1a1a1a"/>
  </g>
 </g>
</svg>
