<?xml version="1.0" encoding="UTF-8" standalone="no"?>
<svg
   width="92pt"
   height="92pt"
   viewBox="0 0 92 92"
   version="1.1"
   id="svg2"
   sodipodi:docname="git.svg"
   inkscape:version="1.3.2 (091e20ef0f, 2023-11-25)"
   xmlns:inkscape="http://www.inkscape.org/namespaces/inkscape"
   xmlns:sodipodi="http://sodipodi.sourceforge.net/DTD/sodipodi-0.dtd"
   xmlns="http://www.w3.org/2000/svg"
   xmlns:svg="http://www.w3.org/2000/svg">
  <sodipodi:namedview
     id="namedview2"
     pagecolor="#ffffff"
     bordercolor="#000000"
     borderopacity="0.25"
     inkscape:showpageshadow="2"
     inkscape:pageopacity="0.0"
     inkscape:pagecheckerboard="0"
     inkscape:deskcolor="#d1d1d1"
     inkscape:document-units="pt"
     inkscape:zoom="6.9130435"
     inkscape:cx="61.333333"
     inkscape:cy="61.333333"
     inkscape:window-width="956"
     inkscape:window-height="1042"
     inkscape:window-x="0"
     inkscape:window-y="16"
     inkscape:window-maximized="1"
     inkscape:current-layer="svg2" />
  <defs
     id="defs1">
    <clipPath
       id="a">
      <path
         d="M0 .113h91.887V92H0Zm0 0"
         id="path1" />
    </clipPath>
  </defs>
  <g
     clip-path="url(#a)"
     id="g2"
     style="fill:#f05033;fill-opacity:1">
    <path
       style="stroke:none;fill-rule:nonzero;fill:#f05033;fill-opacity:1"
       d="M90.156 41.965 50.036 1.848a5.913 5.913 0 0 0-8.368 0l-8.332 8.332 10.566 10.566a7.03 7.03 0 0 1 7.23 1.684 7.043 7.043 0 0 1 1.673 7.277l10.183 10.184a7.026 7.026 0 0 1 7.278 1.672 7.04 7.04 0 0 1 0 9.957 7.045 7.045 0 0 1-9.961 0 7.038 7.038 0 0 1-1.532-7.66l-9.5-9.497V59.36a7.04 7.04 0 0 1 1.86 11.29 7.04 7.04 0 0 1-9.957 0 7.04 7.04 0 0 1 0-9.958 7.034 7.034 0 0 1 2.308-1.539V33.926a7.001 7.001 0 0 1-2.308-1.535 7.049 7.049 0 0 1-1.516-7.7L29.242 14.273 1.734 41.777a5.918 5.918 0 0 0 0 8.371L41.855 90.27a5.92 5.92 0 0 0 8.368 0l39.933-39.934a5.925 5.925 0 0 0 0-8.371"
       id="path2" />
  </g>
</svg>
